<svg xmlns="http://www.w3.org/2000/svg" xmlns:xlink="http://www.w3.org/1999/xlink" version="1.1"
    id="Layer_1" x="0px" y="0px" viewBox="0 0 512.002 512.002"
    style="enable-background:new 0 0 512.002 512.002;" xml:space="preserve">
<g>
	<g>
		<g>
			<path style="fill:#D46B5C;" d="M386.185,171.302h-55.541v-22.151c0-30.563,24.776-55.339,55.339-55.339h55.541v22.151     C441.524,146.526,416.748,171.302,386.185,171.302z"/>
		</g>
		<g>
			<path style="fill:#D46B5C;" d="M125.816,171.302h55.541v-22.151c0-30.563-24.776-55.339-55.339-55.339H70.478v22.151     C70.478,146.526,95.254,171.302,125.816,171.302z"/>
		</g>
		<g>
			<path style="fill:#F7B073;" d="M390.276,502.002h-268.55v-71.681c0-45.21,36.65-81.859,81.859-81.859h104.831     c45.21,0,81.859,36.65,81.859,81.859V502.002z"/>
		</g>
		<g>
			<path style="fill:#D46B5C;" d="M308.417,348.462H203.585c-25.176,0-47.698,11.366-62.714,29.246     c14.783,30.065,45.716,50.757,81.481,50.757h67.297c35.766,0,66.699-20.692,81.481-50.757     C356.114,359.827,333.593,348.462,308.417,348.462z"/>
		</g>
		<g>
			<path style="fill:#F7B073;" d="M289.649,368.465h-67.297c-50.117,0-90.745-40.628-90.745-90.745v-86.898     c0-50.117,40.628-90.745,90.745-90.745h67.297c50.117,0,90.745,40.628,90.745,90.745v86.898     C380.394,327.837,339.766,368.465,289.649,368.465z"/>
		</g>
		<g>
			<path style="fill:#FFFFFF;" d="M345.336,348.993v0.369c-15.405,11.966-34.794,19.102-55.849,19.102h-66.973     c-21.055,0-40.443-7.137-55.849-19.102v-0.369c0-49.165,40.001-89.01,89.335-89.01S345.336,299.828,345.336,348.993z"/>
		</g>
		<g>
			<ellipse style="fill:#D46B5C;" cx="256.001" cy="259.948" rx="33.369" ry="24.346"/>
		</g>
	</g>
	<g>
		<g>
			<g>
				<path style="fill:#FFFFFF;" d="M338.645,250.853h-12.058c-5.523,0-10-4.478-10-10s4.477-10,10-10h12.058c5.523,0,10,4.478,10,10      S344.168,250.853,338.645,250.853z"/>
			</g>
			<g>
				<path style="fill:#FFFFFF;" d="M185.414,250.853h-12.058c-5.523,0-10-4.478-10-10s4.477-10,10-10h12.058c5.523,0,10,4.478,10,10      S190.937,250.853,185.414,250.853z"/>
			</g>
		</g>
		<g>
			<path style="fill:#FD6050;" d="M412.129,16.374c-3.442-4.32-9.733-5.03-14.053-1.59l-11.194,8.919L377.82,9.126     c-2.916-4.69-9.083-6.127-13.772-3.212c-4.69,2.916-6.129,9.082-3.213,13.772l10.299,16.566l-5.227,4.165h-24.643V27.343     c0-3.524-1.855-6.788-4.883-8.592L307.267,1.41c-4.744-2.824-10.883-1.27-13.708,3.475c-2.826,4.745-1.271,10.883,3.474,13.709     l24.232,14.434v16.87h-17.631l-19.858-15.06c-4.401-3.337-10.673-2.475-14.01,1.925c-3.337,4.401-2.476,10.674,1.925,14.011     l22.538,17.092c1.738,1.318,3.86,2.032,6.042,2.032h20.994v34.736c0,5.522,4.477,10,10,10s10-4.478,10-10V60.417h28.14     c2.264,0,4.461-0.769,6.232-2.179l34.903-27.812C414.86,26.984,415.571,20.693,412.129,16.374z"/>
			<path style="fill:#FD6050;" d="M228.225,34.838l-19.858,15.06h-17.631v-16.87l24.232-14.434c4.745-2.826,6.3-8.964,3.474-13.709     c-2.826-4.746-8.966-6.3-13.708-3.475l-29.115,17.342c-3.028,1.804-4.883,5.067-4.883,8.592v13.073h-24.643l-5.227-4.165     l10.299-16.566c2.916-4.69,1.478-10.856-3.213-13.772c-4.688-2.918-10.856-1.479-13.772,3.212l-9.063,14.577l-11.194-8.919     c-4.319-3.44-10.611-2.73-14.053,1.59c-3.442,4.319-2.73,10.61,1.589,14.053l34.903,27.812c1.771,1.41,3.968,2.179,6.232,2.179     h28.14v44.217c0,5.522,4.477,10,10,10s10-4.478,10-10V69.897h20.994c2.182,0,4.304-0.714,6.042-2.032l22.538-17.092     c4.401-3.337,5.263-9.609,1.925-14.011S232.624,31.5,228.225,34.838z"/>
		</g>
		<g>
			<path style="fill:#052A75;" d="M441.524,83.812h-55.541c-17.604,0-34.279,7.033-46.525,19.462     c-14.699-8.395-31.704-13.196-49.809-13.196h-67.297c-18.105,0-35.11,4.801-49.808,13.196     c-12.245-12.433-28.901-19.462-46.526-19.462H70.478c-5.523,0-10,4.478-10,10v22.151c0,34.769,27.297,63.281,61.586,65.232     c-0.302,3.169-0.456,6.38-0.456,9.626v86.898c0,29.605,12.836,56.268,33.236,74.717c-26.565,16.624-43.117,45.907-43.117,77.884     v71.681c0,5.522,4.477,10,10,10h268.55c5.523,0,10-4.478,10-10v-71.681c0-32.057-16.53-61.278-43.112-77.888     c20.396-18.448,33.23-45.109,33.23-74.712v-86.898c0-3.246-0.154-6.457-0.456-9.626c34.289-1.951,61.586-30.463,61.586-65.232     V93.812C451.524,88.29,447.047,83.812,441.524,83.812z M125.816,161.302c-25,0-45.338-20.339-45.338-45.339v-12.151h45.541     c11.14,0,21.724,4.048,29.946,11.293c-13.88,12.185-24.393,28.115-29.945,46.197H125.816z M380.276,430.321v61.681h-248.55     v-61.681c0-27.827,16.024-53.048,41.03-64.932c14.65,8.321,31.579,13.075,49.597,13.075h67.297     c18.018,0,34.947-4.755,49.597-13.075C364.273,377.272,380.276,402.423,380.276,430.321z M370.394,277.72     c0,44.522-36.222,80.744-80.745,80.744h-67.297c-44.523,0-80.745-36.222-80.745-80.744v-86.898     c0-44.522,36.222-80.744,80.745-80.744h67.297c44.523,0,80.745,36.222,80.745,80.744V277.72z M431.524,115.963     c0,25-20.339,45.339-45.338,45.339h-0.203c-5.552-18.081-16.065-34.012-29.944-46.196c8.224-7.243,18.818-11.294,29.946-11.294     h45.541V115.963z"/>
			<path style="fill:#052A75;" d="M202.016,165.881c-5.523,0-10,4.478-10,10v33.4c0,5.522,4.477,10,10,10s10-4.478,10-10v-33.4     C212.016,170.359,207.539,165.881,202.016,165.881z"/>
			<path style="fill:#052A75;" d="M309.986,165.881c-5.523,0-10,4.478-10,10v33.4c0,5.522,4.477,10,10,10s10-4.478,10-10v-33.4     C319.986,170.359,315.509,165.881,309.986,165.881z"/>
			<path style="fill:#052A75;" d="M256.001,225.601c-24.319,0-43.369,15.087-43.369,34.347c0,19.259,19.05,34.346,43.369,34.346     s43.369-15.087,43.369-34.346C299.369,240.688,280.32,225.601,256.001,225.601z M256.001,274.294     c-13.771,0-23.369-7.561-23.369-14.346c0-6.786,9.597-14.347,23.369-14.347c13.771,0,23.369,7.561,23.369,14.347     C279.369,266.733,269.772,274.294,256.001,274.294z"/>
			<path style="fill:#052A75;" d="M261.013,313.103c-2.764,2.754-7.26,2.754-10.023,0c-3.912-3.897-10.243-3.886-14.142,0.025     c-3.898,3.912-3.887,10.244,0.025,14.143c5.274,5.255,12.201,7.883,19.129,7.883c6.928,0,13.855-2.628,19.129-7.883     c3.912-3.898,3.923-10.23,0.025-14.143C271.256,309.215,264.925,309.206,261.013,313.103z"/>
		</g>
	</g>
</g>
<g>
</g>
<g>
</g>
<g>
</g>
<g>
</g>
<g>
</g>
<g>
</g>
<g>
</g>
<g>
</g>
<g>
</g>
<g>
</g>
<g>
</g>
<g>
</g>
<g>
</g>
<g>
</g>
<g>
</g>
</svg>